<svg width="96" height="96" viewBox="0 0 96 96" fill="none" xmlns="http://www.w3.org/2000/svg">
<path d="M54.3607 48.0267H65.6926C65.6294 43.4612 63.7712 39.1041 60.5202 35.898C57.2691 32.692 52.8866 30.8948 48.3207 30.8953C43.7084 30.9023 39.2872 32.7377 36.0258 35.9991C32.7645 39.2604 30.9291 43.6817 30.922 48.2939C30.9291 52.9062 32.7645 57.3275 36.0258 60.5888C39.2872 63.8502 43.7084 65.6856 48.3207 65.6926H92.6323C91.7526 67.9062 90.7074 70.0504 89.5054 72.1069H48.3207C45.1932 72.1096 42.0959 71.4947 39.2066 70.2977C36.3172 69.1007 33.6926 67.345 31.4833 65.1313C29.2697 62.922 27.5139 60.2974 26.3169 57.4081C25.1199 54.5187 24.5051 51.4214 24.5078 48.2939C24.5078 41.9784 27.0166 35.9215 31.4824 31.4557C35.9482 26.9899 42.0051 24.481 48.3207 24.481C54.6362 24.481 60.6931 26.9899 65.1589 31.4557C69.6247 35.9215 72.1335 41.9784 72.1335 48.2939H83.4654C83.4654 38.973 79.7626 30.0338 73.1717 23.4428C66.5808 16.8519 57.6416 13.1492 48.3207 13.1492C38.9997 13.1492 30.0605 16.8519 23.4695 23.4428C16.8786 30.0338 13.176 38.973 13.176 48.2939C13.176 57.6149 16.8786 66.5541 23.4695 73.1451C30.0605 79.736 38.9997 83.4387 48.3207 83.4387H80.3651C71.5344 91.5375 59.9821 96.0211 47.9999 95.9999C35.2696 95.9999 23.0607 90.9428 14.0589 81.9411C5.05722 72.9393 0 60.7303 0 47.9999C0 35.2695 5.05722 23.0606 14.0589 14.0588C23.0607 5.0571 35.2696 0 47.9999 0C60.7303 0 72.9393 5.0571 81.941 14.0588C90.9427 23.0606 95.9998 35.2695 95.9998 47.9999C96.0056 50.1187 95.8627 52.2353 95.5722 54.3341H48.3207C46.7188 54.3341 45.1824 53.6977 44.0497 52.565C42.9169 51.4322 42.2806 49.8959 42.2806 48.2939C42.2806 46.692 42.9169 45.1557 44.0497 44.0229C45.1824 42.8902 46.7188 42.2538 48.3207 42.2538C49.8774 42.2523 51.3745 42.8519 52.4999 43.9275C53.6252 45.003 54.2918 46.4715 54.3607 48.0267Z" fill="black"/>
</svg>
